<?xml version="1.0" standalone="no"?>
<!DOCTYPE svg PUBLIC "-//W3C//DTD SVG 20010904//EN"
 "http://www.w3.org/TR/2001/REC-SVG-20010904/DTD/svg10.dtd">
<svg version="1.0" xmlns="http://www.w3.org/2000/svg"
 width="840.000000pt" height="1651.000000pt" viewBox="0 0 840.000000 1651.000000"
 preserveAspectRatio="xMidYMid meet">
<metadata>
Created by potrace 1.16, written by Peter Selinger 2001-2019
</metadata>
<g transform="translate(0.000000,1651.000000) scale(0.100000,-0.100000)"
fill="#000000" stroke="none">
<path d="M5730 16084 c-371 -27 -771 -113 -1100 -236 -1110 -416 -1809 -1336
-1996 -2628 -44 -304 -47 -388 -51 -1587 l-4 -1153 -1180 0 -1179 0 0 -1355 0
-1355 1180 0 1180 0 0 -3505 0 -3505 1410 0 1410 0 0 3505 0 3505 1172 2 1172
3 17 130 c10 72 32 238 49 370 17 132 44 344 60 470 17 127 37 284 46 350 8
66 21 167 29 225 8 58 21 161 30 230 22 169 39 302 74 575 17 127 33 258 37
292 l7 63 -1344 2 -1344 3 0 985 c0 1072 2 1112 56 1327 117 464 432 696 1023
753 66 6 429 10 908 10 l798 0 0 1219 0 1218 -67 7 c-543 54 -1024 77 -1718
80 -341 2 -645 2 -675 0z"/>
</g>
</svg>
