<?xml version="1.0" standalone="no"?>
<!DOCTYPE svg PUBLIC "-//W3C//DTD SVG 20010904//EN"
 "http://www.w3.org/TR/2001/REC-SVG-20010904/DTD/svg10.dtd">
<svg version="1.0" xmlns="http://www.w3.org/2000/svg"
 width="225.000000pt" height="225.000000pt" viewBox="0 0 225.000000 225.000000"
 preserveAspectRatio="xMidYMid meet">
<metadata>
Created by potrace 1.16, written by Peter Selinger 2001-2019
</metadata>
<g transform="translate(0.000000,225.000000) scale(0.100000,-0.100000)"
fill="#000000" stroke="none">
<path d="M666 1848 c9 -29 34 -109 55 -178 36 -115 39 -133 39 -242 l0 -118
45 0 45 0 0 121 c0 116 2 127 50 286 28 91 50 170 50 174 0 5 -19 9 -43 9
l-43 0 -23 -97 c-13 -54 -27 -105 -31 -113 -8 -14 -22 25 -53 150 l-13 55 -47
3 -46 3 15 -53z"/>
<path d="M1024 1741 c-12 -5 -31 -22 -43 -37 -21 -27 -22 -36 -19 -192 l3
-164 28 -24 c52 -44 159 -27 185 31 8 16 12 81 12 175 0 150 0 150 -28 181
-21 24 -38 32 -72 35 -25 2 -55 0 -66 -5z m75 -85 c8 -9 11 -56 9 -142 -3
-127 -3 -129 -27 -132 -13 -2 -28 2 -32 10 -14 21 -11 252 3 266 16 16 33 15
47 -2z"/>
<path d="M1270 1542 c0 -190 2 -210 18 -225 25 -23 64 -21 95 3 30 24 37 25
37 5 0 -11 11 -15 40 -15 l40 0 0 221 0 220 -37 -3 -38 -3 -3 -170 c-2 -145
-5 -172 -19 -182 -9 -7 -25 -13 -35 -13 -16 0 -18 15 -20 183 l-3 182 -37 3
-38 3 0 -209z"/>
<path d="M544 1171 c-18 -11 -45 -36 -60 -57 l-29 -37 -3 -302 -3 -301 31 -42
c63 -87 23 -82 648 -82 l552 0 34 22 c19 13 46 41 60 62 l26 40 0 296 0 296
-26 40 c-14 22 -40 50 -58 62 l-32 22 -555 0 c-528 0 -555 -1 -585 -19z m316
-156 l0 -45 -45 0 -45 0 0 -245 0 -245 -45 0 -45 0 0 245 0 245 -43 0 c-24 0
-46 2 -48 4 -3 3 -3 23 -1 45 l4 41 134 0 134 0 0 -45z m380 -41 c0 -78 2 -85
18 -78 42 18 87 16 107 -6 18 -20 20 -39 23 -189 3 -158 3 -168 -18 -194 -23
-29 -65 -36 -103 -16 -16 9 -22 9 -25 0 -2 -6 -21 -11 -43 -11 l-39 0 0 290 0
290 40 0 40 0 0 -86z m409 -88 c23 -24 26 -35 30 -111 l3 -85 -76 0 -76 0 0
-54 c0 -67 7 -86 31 -86 22 0 39 28 39 64 0 24 4 26 40 26 40 0 40 0 40 -37 0
-48 -28 -104 -60 -121 -39 -20 -107 -9 -139 22 -25 26 -26 30 -29 172 -4 164
3 195 52 226 43 27 109 19 145 -16z m-709 -151 c0 -162 1 -175 18 -175 38 0
42 19 42 187 l0 163 47 0 46 0 -6 -157 c-4 -87 -7 -184 -7 -215 l0 -58 -40 0
c-34 0 -40 3 -40 20 0 20 0 20 -29 -1 -16 -12 -42 -22 -57 -21 -50 0 -54 18
-54 234 l0 198 40 0 40 0 0 -175z"/>
<path d="M1246 818 c-7 -30 -8 -216 0 -245 4 -16 14 -23 30 -23 l25 0 -3 143
c-3 136 -4 142 -24 145 -15 2 -23 -4 -28 -20z"/>
</g>
</svg>
